<?xml version="1.0" encoding="UTF-8" standalone="no"?>
<svg xmlns="http://www.w3.org/2000/svg" xmlns:xlink="http://www.w3.org/1999/xlink" xmlns:serif="http://www.serif.com/" width="100%" height="100%" viewBox="0 0 116 35" version="1.1" xml:space="preserve" style="fill-rule:evenodd;clip-rule:evenodd;stroke-linejoin:round;stroke-miterlimit:2;">
    <g transform="matrix(1,0,0,1,-198.483,-238.628)">
        <g transform="matrix(1.33333,0,0,1.33333,-195.814,178.123)">
            <g transform="matrix(1,0,0,1,324.533,53.7855)">
                <path d="M0,-6.466L0,-2.752C0,-2.407 0.08,-2.14 0.241,-1.953C0.401,-1.765 0.645,-1.671 0.972,-1.671C1.299,-1.671 1.545,-1.766 1.712,-1.957C1.878,-2.148 1.962,-2.413 1.962,-2.752L1.962,-6.466L3.742,-6.466L3.742,-2.752C3.742,-2.164 3.617,-1.663 3.369,-1.249C3.121,-0.834 2.783,-0.522 2.357,-0.313C1.93,-0.105 1.456,0 0.935,0C0.415,0 -0.05,-0.105 -0.459,-0.313C-0.867,-0.522 -1.188,-0.832 -1.421,-1.244C-1.654,-1.656 -1.771,-2.158 -1.771,-2.752L-1.771,-6.466L0,-6.466Z" style="fill:rgb(0,85,134);fill-rule:nonzero;"></path>
            </g>
            <g transform="matrix(1,0,0,1,333.805,53.1355)">
                <path d="M0,-3.968C0.345,-3.577 0.518,-3.049 0.518,-2.383L0.518,0.586L-1.262,0.586L-1.262,-2.147C-1.262,-2.438 -1.338,-2.666 -1.489,-2.833C-1.641,-2.999 -1.844,-3.083 -2.098,-3.083C-2.364,-3.083 -2.573,-2.999 -2.724,-2.833C-2.876,-2.666 -2.951,-2.438 -2.951,-2.147L-2.951,0.586L-4.731,0.586L-4.731,-4.508L-2.951,-4.508L-2.951,-3.782C-2.794,-4.012 -2.582,-4.198 -2.316,-4.34C-2.049,-4.482 -1.744,-4.554 -1.399,-4.554C-0.811,-4.554 -0.345,-4.358 0,-3.968" style="fill:rgb(0,85,134);fill-rule:nonzero;"></path>
            </g>
            <g transform="matrix(1,0,0,1,0,-1539.59)">
                <path d="M336.72,1593.31L334.94,1593.31L334.94,1588.22L336.72,1588.22L336.72,1593.31ZM335.081,1587.48C334.89,1587.31 334.794,1587.09 334.794,1586.83C334.794,1586.57 334.89,1586.35 335.081,1586.17C335.271,1586 335.524,1585.91 335.839,1585.91C336.148,1585.91 336.397,1586 336.588,1586.17C336.779,1586.35 336.874,1586.57 336.874,1586.83C336.874,1587.09 336.779,1587.31 336.588,1587.48C336.397,1587.66 336.148,1587.74 335.839,1587.74C335.524,1587.74 335.271,1587.66 335.081,1587.48" style="fill:rgb(0,85,134);fill-rule:nonzero;"></path>
            </g>
            <g transform="matrix(1,0,0,1,340.18,50.3077)">
                <path d="M0,1.734L0.954,-1.68L2.852,-1.68L1.099,3.414L-1.117,3.414L-2.87,-1.68L-0.972,-1.68L0,1.734Z" style="fill:rgb(0,85,134);fill-rule:nonzero;"></path>
            </g>
            <g transform="matrix(1,0,0,1,346.5,51.6785)">
                <path d="M0,-1.008C0,-1.226 -0.073,-1.397 -0.218,-1.521C-0.363,-1.645 -0.545,-1.707 -0.763,-1.707C-0.981,-1.707 -1.159,-1.648 -1.299,-1.53C-1.438,-1.412 -1.529,-1.238 -1.571,-1.008L0,-1.008ZM1.789,-0.145L-1.58,-0.145C-1.562,0.133 -1.485,0.341 -1.349,0.477C-1.212,0.613 -1.038,0.681 -0.826,0.681C-0.53,0.681 -0.318,0.548 -0.191,0.282L1.707,0.282C1.629,0.633 1.476,0.946 1.249,1.221C1.022,1.497 0.736,1.713 0.39,1.871C0.045,2.028 -0.336,2.107 -0.754,2.107C-1.256,2.107 -1.703,2.001 -2.093,1.789C-2.484,1.577 -2.79,1.274 -3.01,0.881C-3.232,0.487 -3.342,0.024 -3.342,-0.508C-3.342,-1.041 -3.233,-1.503 -3.015,-1.893C-2.797,-2.284 -2.493,-2.585 -2.102,-2.797C-1.712,-3.009 -1.262,-3.115 -0.754,-3.115C-0.251,-3.115 0.194,-3.012 0.581,-2.806C0.969,-2.6 1.271,-2.305 1.489,-1.921C1.707,-1.536 1.816,-1.084 1.816,-0.563C1.816,-0.424 1.807,-0.284 1.789,-0.145" style="fill:rgb(0,85,134);fill-rule:nonzero;"></path>
            </g>
            <g transform="matrix(1,0,0,1,351.368,53.4681)">
                <path d="M0,-4.632C0.284,-4.801 0.59,-4.886 0.917,-4.886L0.917,-2.988L0.418,-2.988C0.03,-2.988 -0.257,-2.912 -0.445,-2.761C-0.633,-2.61 -0.727,-2.346 -0.727,-1.971L-0.727,0.254L-2.507,0.254L-2.507,-4.841L-0.727,-4.841L-0.727,-3.942C-0.527,-4.232 -0.285,-4.462 0,-4.632" style="fill:rgb(0,85,134);fill-rule:nonzero;"></path>
            </g>
            <g transform="matrix(1,0,0,1,353.679,48.7958)">
                <path d="M0,4.758C-0.36,4.604 -0.645,4.392 -0.854,4.122C-1.063,3.853 -1.179,3.549 -1.203,3.21L0.522,3.21C0.546,3.373 0.622,3.5 0.749,3.591C0.876,3.682 1.034,3.727 1.221,3.727C1.367,3.727 1.482,3.697 1.567,3.636C1.651,3.576 1.694,3.497 1.694,3.4C1.694,3.273 1.624,3.18 1.485,3.119C1.345,3.058 1.115,2.992 0.795,2.919C0.431,2.846 0.129,2.765 -0.113,2.674C-0.356,2.583 -0.566,2.435 -0.745,2.229C-0.923,2.023 -1.013,1.745 -1.013,1.393C-1.013,1.091 -0.931,0.817 -0.767,0.571C-0.604,0.326 -0.363,0.131 -0.045,-0.014C0.272,-0.159 0.655,-0.232 1.103,-0.232C1.769,-0.232 2.293,-0.069 2.674,0.258C3.056,0.585 3.277,1.015 3.337,1.548L1.73,1.548C1.7,1.384 1.629,1.259 1.517,1.171C1.405,1.083 1.255,1.039 1.067,1.039C0.922,1.039 0.811,1.066 0.736,1.121C0.66,1.175 0.622,1.251 0.622,1.348C0.622,1.469 0.692,1.561 0.831,1.625C0.97,1.689 1.194,1.754 1.503,1.82C1.872,1.899 2.18,1.987 2.425,2.084C2.67,2.18 2.885,2.336 3.069,2.551C3.254,2.766 3.346,3.058 3.346,3.428C3.346,3.724 3.26,3.991 3.088,4.227C2.915,4.463 2.67,4.649 2.352,4.785C2.034,4.921 1.66,4.99 1.23,4.99C0.77,4.99 0.36,4.912 0,4.758" style="fill:rgb(0,85,134);fill-rule:nonzero;"></path>
            </g>
            <g transform="matrix(1,0,0,1,0,-1539.59)">
                <path d="M359.495,1593.31L357.715,1593.31L357.715,1588.22L359.495,1588.22L359.495,1593.31ZM357.856,1587.48C357.665,1587.31 357.57,1587.09 357.57,1586.83C357.57,1586.57 357.665,1586.35 357.856,1586.17C358.047,1586 358.3,1585.91 358.614,1585.91C358.923,1585.91 359.173,1586 359.364,1586.17C359.554,1586.35 359.65,1586.57 359.65,1586.83C359.65,1587.09 359.554,1587.31 359.364,1587.48C359.173,1587.66 358.923,1587.74 358.614,1587.74C358.3,1587.74 358.047,1587.66 357.856,1587.48" style="fill:rgb(0,85,134);fill-rule:nonzero;"></path>
            </g>
            <g transform="matrix(1,0,0,1,363.337,48.9092)">
                <path d="M0,3.296L0,4.813L-0.772,4.813C-2.074,4.813 -2.724,4.168 -2.724,2.878L-2.724,1.198L-3.351,1.198L-3.351,-0.282L-2.724,-0.282L-2.724,-1.517L-0.935,-1.517L-0.935,-0.282L-0.009,-0.282L-0.009,1.198L-0.935,1.198L-0.935,2.906C-0.935,3.045 -0.904,3.145 -0.84,3.205C-0.776,3.266 -0.669,3.296 -0.518,3.296L0,3.296Z" style="fill:rgb(0,85,134);fill-rule:nonzero;"></path>
            </g>
            <g transform="matrix(1,0,0,1,369.639,55.3713)">
                <path d="M0,-6.744L-2.945,0L-4.88,0L-3.95,-1.867L-6.039,-6.744L-4.059,-6.744L-2.988,-3.856L-1.952,-6.744L0,-6.744Z" style="fill:rgb(0,85,134);fill-rule:nonzero;"></path>
            </g>
            <g transform="matrix(1,0,0,1,374.466,50.3846)">
                <path d="M0,1.58C0.166,1.395 0.25,1.131 0.25,0.785C0.25,0.44 0.166,0.177 0,-0.005C-0.167,-0.186 -0.371,-0.277 -0.613,-0.277C-0.855,-0.277 -1.058,-0.186 -1.221,-0.005C-1.385,0.177 -1.467,0.44 -1.467,0.785C-1.467,1.137 -1.388,1.403 -1.23,1.585C-1.073,1.766 -0.87,1.857 -0.622,1.857C-0.374,1.857 -0.167,1.765 0,1.58M-1.989,3.083C-2.391,2.871 -2.708,2.568 -2.938,2.175C-3.168,1.781 -3.283,1.318 -3.283,0.785C-3.283,0.259 -3.166,-0.201 -2.933,-0.595C-2.7,-0.988 -2.382,-1.291 -1.98,-1.503C-1.577,-1.715 -1.121,-1.821 -0.613,-1.821C-0.104,-1.821 0.351,-1.715 0.754,-1.503C1.156,-1.291 1.474,-0.988 1.707,-0.595C1.94,-0.201 2.057,0.259 2.057,0.785C2.057,1.312 1.94,1.774 1.707,2.17C1.474,2.567 1.155,2.871 0.749,3.083C0.344,3.295 -0.114,3.401 -0.622,3.401C-1.131,3.401 -1.586,3.295 -1.989,3.083" style="fill:rgb(0,85,134);fill-rule:nonzero;"></path>
            </g>
            <g transform="matrix(1,0,0,1,379.819,50.1705)">
                <path d="M0,-0.063L-0.799,-0.063L-0.799,3.551L-2.588,3.551L-2.588,-0.063L-3.142,-0.063L-3.142,-1.543L-2.588,-1.543L-2.588,-1.589C-2.588,-2.243 -2.396,-2.743 -2.012,-3.092C-1.627,-3.44 -1.075,-3.614 -0.354,-3.614C-0.209,-3.614 -0.097,-3.611 -0.018,-3.605L-0.018,-2.088C-0.067,-2.094 -0.133,-2.097 -0.218,-2.097C-0.412,-2.097 -0.554,-2.053 -0.645,-1.966C-0.736,-1.878 -0.787,-1.737 -0.799,-1.543L0,-1.543L0,-0.063Z" style="fill:rgb(0,85,134);fill-rule:nonzero;"></path>
            </g>
            <g transform="matrix(1,0,0,1,328.719,55.6747)">
                <path d="M0,6.402L-1.78,6.402L-4.15,2.824L-4.15,6.402L-5.93,6.402L-5.93,0L-4.15,0L-1.78,3.623L-1.78,0L0,0L0,6.402Z" style="fill:rgb(0,85,134);fill-rule:nonzero;"></path>
            </g>
            <g transform="matrix(1,0,0,1,0,-1522.88)">
                <path d="M331.335,1584.95L329.555,1584.95L329.555,1579.86L331.335,1579.86L331.335,1584.95ZM329.695,1579.13C329.505,1578.96 329.409,1578.74 329.409,1578.48C329.409,1578.21 329.505,1577.99 329.695,1577.82C329.886,1577.64 330.139,1577.55 330.454,1577.55C330.763,1577.55 331.012,1577.64 331.203,1577.82C331.394,1577.99 331.489,1578.21 331.489,1578.48C331.489,1578.74 331.394,1578.96 331.203,1579.13C331.012,1579.3 330.763,1579.39 330.454,1579.39C330.139,1579.39 329.886,1579.3 329.695,1579.13" style="fill:rgb(0,85,134);fill-rule:nonzero;"></path>
            </g>
            <g transform="matrix(1,0,0,1,335.28,60.3059)">
                <path d="M0,-1.553C-0.179,-1.741 -0.398,-1.835 -0.658,-1.835C-0.925,-1.835 -1.146,-1.742 -1.321,-1.558C-1.497,-1.373 -1.585,-1.114 -1.585,-0.781C-1.585,-0.454 -1.497,-0.195 -1.321,-0.005C-1.146,0.186 -0.925,0.281 -0.658,0.281C-0.398,0.281 -0.179,0.188 0,0C0.179,-0.188 0.268,-0.448 0.268,-0.781C0.268,-1.108 0.179,-1.365 0,-1.553M-3.115,-2.162C-2.924,-2.555 -2.664,-2.858 -2.334,-3.07C-2.004,-3.282 -1.636,-3.387 -1.23,-3.387C-0.879,-3.387 -0.577,-3.318 -0.322,-3.179C-0.068,-3.039 0.129,-2.852 0.268,-2.615L0.268,-3.324L2.048,-3.324L2.048,1.771L0.268,1.771L0.268,1.062C0.129,1.298 -0.07,1.486 -0.327,1.625C-0.584,1.765 -0.885,1.834 -1.23,1.834C-1.636,1.834 -2.004,1.728 -2.334,1.516C-2.664,1.305 -2.924,1 -3.115,0.604C-3.306,0.207 -3.401,-0.254 -3.401,-0.781C-3.401,-1.308 -3.306,-1.768 -3.115,-2.162" style="fill:rgb(0,85,134);fill-rule:nonzero;"></path>
            </g>
            <g transform="matrix(1,0,0,1,341.274,62.7489)">
                <path d="M0,-3.996C-0.179,-4.184 -0.398,-4.278 -0.658,-4.278C-0.925,-4.278 -1.146,-4.185 -1.321,-4.001C-1.497,-3.816 -1.585,-3.557 -1.585,-3.224C-1.585,-2.897 -1.497,-2.638 -1.321,-2.448C-1.146,-2.257 -0.925,-2.162 -0.658,-2.162C-0.398,-2.162 -0.179,-2.255 0,-2.443C0.179,-2.631 0.268,-2.891 0.268,-3.224C0.268,-3.551 0.179,-3.808 0,-3.996M-0.327,-5.622C-0.07,-5.482 0.129,-5.295 0.268,-5.058L0.268,-5.767L2.048,-5.767L2.048,-0.727C2.048,-0.249 1.957,0.183 1.775,0.567C1.594,0.952 1.311,1.259 0.926,1.489C0.542,1.719 0.056,1.834 -0.531,1.834C-1.318,1.834 -1.948,1.649 -2.42,1.28C-2.892,0.911 -3.162,0.408 -3.228,-0.227L-1.476,-0.227C-1.439,-0.064 -1.349,0.063 -1.203,0.154C-1.058,0.245 -0.87,0.29 -0.64,0.29C-0.035,0.29 0.268,-0.049 0.268,-0.727L0.268,-1.381C0.129,-1.145 -0.07,-0.957 -0.327,-0.818C-0.584,-0.678 -0.885,-0.609 -1.23,-0.609C-1.636,-0.609 -2.004,-0.715 -2.334,-0.927C-2.664,-1.138 -2.924,-1.443 -3.115,-1.839C-3.306,-2.236 -3.401,-2.697 -3.401,-3.224C-3.401,-3.751 -3.306,-4.211 -3.115,-4.605C-2.924,-4.998 -2.664,-5.301 -2.334,-5.513C-2.004,-5.725 -1.636,-5.83 -1.23,-5.83C-0.885,-5.83 -0.584,-5.761 -0.327,-5.622" style="fill:rgb(0,85,134);fill-rule:nonzero;"></path>
            </g>
            <g transform="matrix(1,0,0,1,347.268,60.3059)">
                <path d="M0,-1.553C-0.179,-1.741 -0.398,-1.835 -0.658,-1.835C-0.925,-1.835 -1.146,-1.742 -1.321,-1.558C-1.497,-1.373 -1.585,-1.114 -1.585,-0.781C-1.585,-0.454 -1.497,-0.195 -1.321,-0.005C-1.146,0.186 -0.925,0.281 -0.658,0.281C-0.398,0.281 -0.179,0.188 0,0C0.179,-0.188 0.268,-0.448 0.268,-0.781C0.268,-1.108 0.179,-1.365 0,-1.553M-3.115,-2.162C-2.924,-2.555 -2.664,-2.858 -2.334,-3.07C-2.004,-3.282 -1.636,-3.387 -1.23,-3.387C-0.879,-3.387 -0.577,-3.318 -0.322,-3.179C-0.068,-3.039 0.129,-2.852 0.268,-2.615L0.268,-3.324L2.048,-3.324L2.048,1.771L0.268,1.771L0.268,1.062C0.129,1.298 -0.07,1.486 -0.327,1.625C-0.584,1.765 -0.885,1.834 -1.23,1.834C-1.636,1.834 -2.004,1.728 -2.334,1.516C-2.664,1.305 -2.924,1 -3.115,0.604C-3.306,0.207 -3.401,-0.254 -3.401,-0.781C-3.401,-1.308 -3.306,-1.768 -3.115,-2.162" style="fill:rgb(0,85,134);fill-rule:nonzero;"></path>
            </g>
            <g transform="matrix(1,0,0,1,352.657,61.8229)">
                <path d="M0,-4.632C0.284,-4.801 0.59,-4.886 0.917,-4.886L0.917,-2.988L0.418,-2.988C0.03,-2.988 -0.257,-2.913 -0.445,-2.761C-0.633,-2.61 -0.727,-2.346 -0.727,-1.971L-0.727,0.254L-2.507,0.254L-2.507,-4.841L-0.727,-4.841L-0.727,-3.942C-0.527,-4.232 -0.285,-4.462 0,-4.632" style="fill:rgb(0,85,134);fill-rule:nonzero;"></path>
            </g>
            <g transform="matrix(1,0,0,1,357.32,60.3059)">
                <path d="M0,-1.553C-0.179,-1.741 -0.398,-1.835 -0.658,-1.835C-0.925,-1.835 -1.146,-1.742 -1.321,-1.558C-1.497,-1.373 -1.585,-1.114 -1.585,-0.781C-1.585,-0.454 -1.497,-0.195 -1.321,-0.005C-1.146,0.186 -0.925,0.281 -0.658,0.281C-0.398,0.281 -0.179,0.188 0,0C0.179,-0.188 0.268,-0.448 0.268,-0.781C0.268,-1.108 0.179,-1.365 0,-1.553M-3.115,-2.162C-2.924,-2.555 -2.664,-2.858 -2.334,-3.07C-2.004,-3.282 -1.636,-3.387 -1.23,-3.387C-0.879,-3.387 -0.577,-3.318 -0.322,-3.179C-0.068,-3.039 0.129,-2.852 0.268,-2.615L0.268,-3.324L2.048,-3.324L2.048,1.771L0.268,1.771L0.268,1.062C0.129,1.298 -0.07,1.486 -0.327,1.625C-0.584,1.765 -0.885,1.834 -1.23,1.834C-1.636,1.834 -2.004,1.728 -2.334,1.516C-2.664,1.305 -2.924,1 -3.115,0.604C-3.306,0.207 -3.401,-0.254 -3.401,-0.781C-3.401,-1.308 -3.306,-1.768 -3.115,-2.162" style="fill:rgb(0,85,134);fill-rule:nonzero;"></path>
            </g>
            <g transform="matrix(1,0,0,1,366.097,62.0763)">
                <path d="M0,-6.402L0,-4.985L-2.561,-4.985L-2.561,-3.859L-0.672,-3.859L-0.672,-2.506L-2.561,-2.506L-2.561,0L-4.341,0L-4.341,-6.402L0,-6.402Z" style="fill:rgb(0,85,134);fill-rule:nonzero;"></path>
            </g>
            <g transform="matrix(1,0,0,1,369.598,60.3059)">
                <path d="M0,-1.553C-0.179,-1.741 -0.398,-1.835 -0.658,-1.835C-0.925,-1.835 -1.146,-1.742 -1.321,-1.558C-1.497,-1.373 -1.585,-1.114 -1.585,-0.781C-1.585,-0.454 -1.497,-0.195 -1.321,-0.005C-1.146,0.186 -0.925,0.281 -0.658,0.281C-0.398,0.281 -0.179,0.188 0,0C0.179,-0.188 0.268,-0.448 0.268,-0.781C0.268,-1.108 0.179,-1.365 0,-1.553M-3.115,-2.162C-2.924,-2.555 -2.664,-2.858 -2.334,-3.07C-2.004,-3.282 -1.636,-3.387 -1.23,-3.387C-0.879,-3.387 -0.577,-3.318 -0.322,-3.179C-0.068,-3.039 0.129,-2.852 0.268,-2.615L0.268,-3.324L2.048,-3.324L2.048,1.771L0.268,1.771L0.268,1.062C0.129,1.298 -0.07,1.486 -0.327,1.625C-0.584,1.765 -0.885,1.834 -1.23,1.834C-1.636,1.834 -2.004,1.728 -2.334,1.516C-2.664,1.305 -2.924,1 -3.115,0.604C-3.306,0.207 -3.401,-0.254 -3.401,-0.781C-3.401,-1.308 -3.306,-1.768 -3.115,-2.162" style="fill:rgb(0,85,134);fill-rule:nonzero;"></path>
            </g>
            <g transform="matrix(-1,0,0,1,746.742,-1522.2)">
                <rect x="372.481" y="1577.55" width="1.78" height="6.72" style="fill:rgb(0,85,134);"></rect>
            </g>
            <g transform="matrix(-1,0,0,1,751.974,-1522.2)">
                <rect x="375.097" y="1577.55" width="1.78" height="6.72" style="fill:rgb(0,85,134);"></rect>
            </g>
            <g transform="matrix(1,0,0,1,378.652,57.1507)">
                <path d="M0,4.758C-0.36,4.604 -0.645,4.392 -0.854,4.122C-1.063,3.853 -1.179,3.549 -1.203,3.21L0.522,3.21C0.546,3.373 0.622,3.5 0.749,3.591C0.876,3.682 1.034,3.727 1.221,3.727C1.367,3.727 1.482,3.697 1.567,3.636C1.651,3.576 1.694,3.497 1.694,3.4C1.694,3.273 1.624,3.179 1.485,3.119C1.345,3.058 1.115,2.992 0.795,2.919C0.431,2.846 0.129,2.765 -0.113,2.674C-0.356,2.583 -0.566,2.435 -0.745,2.229C-0.923,2.023 -1.013,1.744 -1.013,1.393C-1.013,1.091 -0.931,0.817 -0.767,0.571C-0.604,0.326 -0.363,0.131 -0.045,-0.014C0.272,-0.16 0.655,-0.232 1.103,-0.232C1.769,-0.232 2.293,-0.069 2.674,0.258C3.056,0.585 3.277,1.015 3.337,1.548L1.73,1.548C1.7,1.384 1.629,1.259 1.517,1.171C1.405,1.083 1.255,1.039 1.067,1.039C0.922,1.039 0.811,1.066 0.736,1.121C0.66,1.175 0.622,1.251 0.622,1.348C0.622,1.469 0.692,1.561 0.831,1.625C0.97,1.688 1.194,1.754 1.503,1.82C1.872,1.899 2.18,1.987 2.425,2.084C2.67,2.18 2.885,2.336 3.069,2.551C3.254,2.766 3.346,3.058 3.346,3.428C3.346,3.724 3.26,3.991 3.088,4.227C2.915,4.463 2.67,4.649 2.352,4.785C2.034,4.921 1.66,4.99 1.23,4.99C0.77,4.99 0.36,4.912 0,4.758" style="fill:rgb(0,85,134);fill-rule:nonzero;"></path>
            </g>
            <g transform="matrix(1,0,0,1,322.966,68.9101)">
                <path d="M0,-3.378C0.263,-3.871 0.637,-4.256 1.122,-4.531C1.606,-4.807 2.163,-4.945 2.793,-4.945C3.592,-4.945 4.264,-4.731 4.809,-4.304C5.353,-3.878 5.704,-3.298 5.862,-2.565L3.946,-2.565C3.831,-2.807 3.672,-2.992 3.469,-3.119C3.266,-3.246 3.032,-3.31 2.765,-3.31C2.354,-3.31 2.025,-3.163 1.78,-2.869C1.535,-2.576 1.412,-2.184 1.412,-1.693C1.412,-1.197 1.535,-0.802 1.78,-0.508C2.025,-0.215 2.354,-0.068 2.765,-0.068C3.032,-0.068 3.266,-0.131 3.469,-0.259C3.672,-0.386 3.831,-0.57 3.946,-0.813L5.862,-0.813C5.704,-0.08 5.353,0.5 4.809,0.927C4.264,1.353 3.592,1.567 2.793,1.567C2.163,1.567 1.606,1.429 1.122,1.154C0.637,0.878 0.263,0.494 0,-0C-0.263,-0.493 -0.395,-1.058 -0.395,-1.693C-0.395,-2.323 -0.263,-2.884 0,-3.378" style="fill:rgb(0,178,226);fill-rule:nonzero;"></path>
            </g>
            <g transform="matrix(1,0,0,1,332.601,68.6607)">
                <path d="M0,-1.553C-0.179,-1.741 -0.398,-1.834 -0.658,-1.834C-0.925,-1.834 -1.146,-1.742 -1.321,-1.558C-1.497,-1.373 -1.585,-1.114 -1.585,-0.781C-1.585,-0.454 -1.497,-0.195 -1.321,-0.005C-1.146,0.186 -0.925,0.281 -0.658,0.281C-0.398,0.281 -0.179,0.188 0,0C0.179,-0.188 0.268,-0.448 0.268,-0.781C0.268,-1.108 0.179,-1.365 0,-1.553M-3.115,-2.161C-2.924,-2.555 -2.664,-2.858 -2.334,-3.07C-2.004,-3.281 -1.636,-3.387 -1.23,-3.387C-0.879,-3.387 -0.577,-3.318 -0.322,-3.178C-0.068,-3.039 0.129,-2.852 0.268,-2.615L0.268,-3.324L2.048,-3.324L2.048,1.771L0.268,1.771L0.268,1.062C0.129,1.299 -0.07,1.486 -0.327,1.625C-0.584,1.765 -0.885,1.834 -1.23,1.834C-1.636,1.834 -2.004,1.728 -2.334,1.517C-2.664,1.305 -2.924,1 -3.115,0.604C-3.306,0.207 -3.401,-0.254 -3.401,-0.781C-3.401,-1.308 -3.306,-1.768 -3.115,-2.161" style="fill:rgb(0,178,226);fill-rule:nonzero;"></path>
            </g>
            <g transform="matrix(1,0,0,1,340.216,69.8451)">
                <path d="M0,-3.968C0.345,-3.577 0.518,-3.049 0.518,-2.383L0.518,0.586L-1.262,0.586L-1.262,-2.147C-1.262,-2.438 -1.338,-2.666 -1.489,-2.833C-1.641,-2.999 -1.843,-3.083 -2.098,-3.083C-2.364,-3.083 -2.573,-2.999 -2.724,-2.833C-2.876,-2.666 -2.951,-2.438 -2.951,-2.147L-2.951,0.586L-4.731,0.586L-4.731,-4.508L-2.951,-4.508L-2.951,-3.782C-2.794,-4.012 -2.582,-4.198 -2.316,-4.34C-2.049,-4.482 -1.744,-4.554 -1.399,-4.554C-0.811,-4.554 -0.345,-4.358 0,-3.968" style="fill:rgb(0,178,226);fill-rule:nonzero;"></path>
            </g>
            <g transform="matrix(1,0,0,1,344.643,68.6607)">
                <path d="M0,-1.553C-0.179,-1.741 -0.398,-1.834 -0.658,-1.834C-0.925,-1.834 -1.146,-1.742 -1.321,-1.558C-1.497,-1.373 -1.585,-1.114 -1.585,-0.781C-1.585,-0.454 -1.497,-0.195 -1.321,-0.005C-1.146,0.186 -0.925,0.281 -0.658,0.281C-0.398,0.281 -0.179,0.188 0,0C0.179,-0.188 0.268,-0.448 0.268,-0.781C0.268,-1.108 0.179,-1.365 0,-1.553M-3.115,-2.161C-2.924,-2.555 -2.664,-2.858 -2.334,-3.07C-2.004,-3.281 -1.636,-3.387 -1.23,-3.387C-0.879,-3.387 -0.577,-3.318 -0.322,-3.178C-0.068,-3.039 0.129,-2.852 0.268,-2.615L0.268,-3.324L2.048,-3.324L2.048,1.771L0.268,1.771L0.268,1.062C0.129,1.299 -0.07,1.486 -0.327,1.625C-0.584,1.765 -0.885,1.834 -1.23,1.834C-1.636,1.834 -2.004,1.728 -2.334,1.517C-2.664,1.305 -2.924,1 -3.115,0.604C-3.306,0.207 -3.401,-0.254 -3.401,-0.781C-3.401,-1.308 -3.306,-1.768 -3.115,-2.161" style="fill:rgb(0,178,226);fill-rule:nonzero;"></path>
            </g>
            <g transform="matrix(1,0,0,1,350.637,67.0987)">
                <path d="M0,0.009C-0.179,-0.179 -0.398,-0.272 -0.658,-0.272C-0.925,-0.272 -1.146,-0.18 -1.321,0.004C-1.497,0.189 -1.585,0.448 -1.585,0.781C-1.585,1.108 -1.497,1.367 -1.321,1.557C-1.146,1.748 -0.925,1.843 -0.658,1.843C-0.398,1.843 -0.179,1.75 0,1.562C0.179,1.374 0.268,1.114 0.268,0.781C0.268,0.454 0.179,0.197 0,0.009M-3.115,-0.599C-2.924,-0.993 -2.662,-1.296 -2.329,-1.508C-1.996,-1.719 -1.627,-1.825 -1.221,-1.825C-0.894,-1.825 -0.602,-1.757 -0.345,-1.621C-0.088,-1.485 0.114,-1.299 0.259,-1.063L0.259,-3.387L2.048,-3.387L2.048,3.333L0.259,3.333L0.259,2.624C0.12,2.861 -0.077,3.048 -0.331,3.187C-0.586,3.327 -0.885,3.396 -1.23,3.396C-1.636,3.396 -2.004,3.29 -2.334,3.079C-2.664,2.867 -2.924,2.562 -3.115,2.166C-3.306,1.769 -3.401,1.308 -3.401,0.781C-3.401,0.254 -3.306,-0.206 -3.115,-0.599" style="fill:rgb(0,178,226);fill-rule:nonzero;"></path>
            </g>
            <g transform="matrix(1,0,0,1,356.63,68.6607)">
                <path d="M0,-1.553C-0.179,-1.741 -0.398,-1.834 -0.658,-1.834C-0.925,-1.834 -1.146,-1.742 -1.321,-1.558C-1.497,-1.373 -1.585,-1.114 -1.585,-0.781C-1.585,-0.454 -1.497,-0.195 -1.321,-0.005C-1.146,0.186 -0.925,0.281 -0.658,0.281C-0.398,0.281 -0.179,0.188 0,0C0.178,-0.188 0.268,-0.448 0.268,-0.781C0.268,-1.108 0.178,-1.365 0,-1.553M-3.115,-2.161C-2.924,-2.555 -2.664,-2.858 -2.334,-3.07C-2.004,-3.281 -1.636,-3.387 -1.23,-3.387C-0.879,-3.387 -0.577,-3.318 -0.322,-3.178C-0.068,-3.039 0.129,-2.852 0.268,-2.615L0.268,-3.324L2.048,-3.324L2.048,1.771L0.268,1.771L0.268,1.062C0.129,1.299 -0.07,1.486 -0.327,1.625C-0.584,1.765 -0.885,1.834 -1.23,1.834C-1.636,1.834 -2.004,1.728 -2.334,1.517C-2.664,1.305 -2.924,1 -3.115,0.604C-3.306,0.207 -3.401,-0.254 -3.401,-0.781C-3.401,-1.308 -3.306,-1.768 -3.115,-2.161" style="fill:rgb(0,178,226);fill-rule:nonzero;"></path>
            </g>
            <g transform="matrix(1,0,0,1,314.869,45.6706)">
                <path d="M0,20.857C-5.47,20.46 -9.799,15.885 -9.799,10.316L-9.799,-0.291L-12.281,-0.291L-12.281,11.526C-12.281,16.84 -7.973,21.148 -2.659,21.148L-2.164,21.148C-1.369,21.148 -0.597,21.049 0.142,20.866L0,20.857Z" style="fill:rgb(0,178,226);fill-rule:nonzero;"></path>
            </g>
            <g transform="matrix(1,0,0,1,308.766,45.3789)">
                <path d="M0,23.332L0.495,23.332C2.006,23.332 4.709,22.358 4.709,22.358C4.709,22.358 4.198,22.389 3.939,22.389L3.443,22.389C-2.386,22.389 -7.128,17.647 -7.128,11.818L-7.128,0L-9.621,0L-9.621,13.711C-9.621,19.016 -5.305,23.332 0,23.332" style="fill:rgb(0,132,174);fill-rule:nonzero;"></path>
            </g>
            <g transform="matrix(1,0,0,1,309.262,47.1558)">
                <path d="M0,22.505L-0.495,22.505C-6.324,22.505 -11.067,17.763 -11.067,11.934L-11.067,-1.776L-13.539,-1.776L-13.539,14.184C-13.539,19.737 -8.996,24.281 -3.443,24.281L-2.947,24.281C-2.791,24.281 -2.636,24.276 -2.482,24.269C-2.398,24.265 -2.314,24.26 -2.23,24.254C-2.185,24.251 -2.14,24.247 -2.096,24.244C0.183,24.063 3.904,21.755 3.904,21.755C3.904,21.755 1.379,22.505 0,22.505" style="fill:rgb(0,85,134);fill-rule:nonzero;"></path>
            </g>
            <g transform="matrix(1,0,0,1,306.019,65.6073)">
                <path d="M0,-20.228L0,-9.621C0,-4.316 4.316,0 9.621,0L9.748,0C10.468,-1.427 10.875,-3.037 10.875,-4.742L10.875,-20.224L9.925,-20.224L9.925,-4.742C9.925,-3.345 9.623,-2.018 9.085,-0.819C5.239,-2.248 2.478,-5.958 2.478,-10.286L2.478,-20.228L0,-20.228Z" style="fill:rgb(178,223,247);fill-rule:nonzero;"></path>
            </g>
        </g>
    </g>
</svg>
